<svg width="496" height="474" viewBox="0 0 496 474" fill="none" xmlns="http://www.w3.org/2000/svg">
<path d="M452 101C476.301 101 496 81.3005 496 57C496 32.6995 476.301 13 452 13C427.699 13 408 32.6995 408 57C408 81.3005 427.699 101 452 101Z" fill="#F0F0F0"/>
<g clip-path="url(#clip0_16_805)">
<path d="M479 156.095H476.71V93.3277C476.71 83.693 472.879 74.4529 466.061 67.6401C459.242 60.8274 449.994 57 440.351 57H307.253C302.478 56.9999 297.75 57.9395 293.339 59.7651C288.928 61.5906 284.92 64.2664 281.543 67.6397C278.167 71.013 275.489 75.0177 273.661 79.4251C271.834 83.8326 270.894 88.5565 270.894 93.3271V437.672C270.894 447.307 274.724 456.547 281.543 463.36C288.361 470.173 297.609 474 307.252 474H440.349C449.992 474 459.24 470.173 466.059 463.36C472.877 456.547 476.708 447.307 476.708 437.672V200.773H478.998L479 156.095Z" fill="#3F3D56"/>
<path d="M469.295 90.8945V440.104C469.293 447.409 466.389 454.415 461.22 459.581C456.05 464.747 449.04 467.65 441.728 467.653H305.9C298.586 467.654 291.571 464.752 286.398 459.586C281.225 454.42 278.318 447.412 278.315 440.104V90.8945C278.318 83.587 281.225 76.5796 286.398 71.4135C291.57 66.2474 298.585 63.3457 305.899 63.3467H322.375C321.566 65.3345 321.258 67.4905 321.479 69.6251C321.699 71.7597 322.441 73.8076 323.638 75.5887C324.836 77.3699 326.454 78.8298 328.349 79.8401C330.243 80.8504 332.358 81.3802 334.505 81.3829H411.944C414.091 81.3802 416.206 80.8504 418.1 79.8401C419.995 78.8298 421.613 77.3699 422.811 75.5887C424.008 73.8076 424.75 71.7597 424.97 69.6251C425.191 67.4905 424.883 65.3345 424.074 63.3467H441.723C449.034 63.3479 456.046 66.2499 461.216 71.4147C466.386 76.5795 469.292 83.5843 469.295 90.8892V90.8945Z" fill="white"/>
<path d="M375.262 230.6C359.797 230.606 344.964 224.474 334.024 213.553C323.084 202.631 316.934 187.816 316.927 172.364V172.313C316.927 172.191 316.927 172.062 316.934 171.94C317.11 140.022 343.28 114.029 375.262 114.029C390.733 114.029 405.571 120.168 416.512 131.098C427.452 142.028 433.599 156.853 433.6 172.311C433.601 187.769 427.455 202.594 416.516 213.525C405.577 224.456 390.74 230.597 375.268 230.598H375.262V230.6ZM375.262 115.256C360.185 115.289 345.731 121.266 335.039 131.887C324.348 142.509 318.283 156.916 318.163 171.979C318.156 172.11 318.156 172.214 318.156 172.313C318.155 183.6 321.503 194.633 327.778 204.018C334.052 213.403 342.971 220.718 353.407 225.038C363.843 229.359 375.326 230.49 386.406 228.29C397.485 226.089 407.662 220.656 415.651 212.676C423.639 204.696 429.08 194.529 431.285 183.46C433.49 172.391 432.361 160.917 428.039 150.489C423.718 140.061 416.398 131.148 407.007 124.877C397.615 118.605 386.573 115.257 375.277 115.256H375.262V115.256Z" fill="#E6E6E6"/>
<path d="M435.584 291.879H314.884C314.292 291.879 313.723 291.643 313.304 291.225C312.885 290.806 312.65 290.238 312.649 289.646V259.732C312.65 259.14 312.886 258.573 313.305 258.154C313.724 257.735 314.292 257.5 314.884 257.499H435.584C436.176 257.5 436.744 257.735 437.163 258.154C437.582 258.573 437.818 259.14 437.819 259.732V289.647C437.818 290.239 437.582 290.806 437.163 291.225C436.744 291.644 436.176 291.879 435.584 291.88V291.879ZM314.884 258.392C314.529 258.392 314.188 258.534 313.936 258.785C313.685 259.036 313.543 259.377 313.543 259.732V289.647C313.543 290.002 313.685 290.343 313.936 290.594C314.188 290.845 314.529 290.987 314.884 290.987H435.584C435.939 290.987 436.28 290.845 436.532 290.594C436.783 290.343 436.925 290.002 436.925 289.647V259.732C436.925 259.377 436.783 259.036 436.532 258.785C436.28 258.534 435.939 258.392 435.584 258.392H314.884Z" fill="#E6E6E6"/>
<path d="M352.211 268.436C351.796 268.436 351.398 268.601 351.105 268.894C350.812 269.187 350.647 269.585 350.647 270C350.647 270.414 350.812 270.812 351.105 271.105C351.398 271.398 351.796 271.563 352.211 271.563H425.972C426.177 271.571 426.382 271.538 426.575 271.467C426.767 271.396 426.944 271.287 427.095 271.148C427.246 271.008 427.368 270.84 427.453 270.654C427.539 270.467 427.588 270.266 427.595 270.06C427.603 269.855 427.571 269.65 427.499 269.458C427.428 269.265 427.319 269.089 427.18 268.938C427.04 268.787 426.872 268.666 426.685 268.58C426.499 268.494 426.297 268.446 426.092 268.438C426.069 268.437 426.046 268.437 426.023 268.437H352.211V268.436Z" fill="#E6E6E6"/>
<path d="M352.211 277.816C351.796 277.816 351.398 277.98 351.105 278.274C350.812 278.567 350.647 278.965 350.647 279.379C350.647 279.794 350.812 280.191 351.105 280.485C351.398 280.778 351.796 280.943 352.211 280.943H425.972C426.177 280.95 426.382 280.918 426.575 280.846C426.767 280.775 426.944 280.667 427.095 280.527C427.246 280.388 427.368 280.22 427.453 280.033C427.539 279.847 427.588 279.645 427.595 279.44C427.603 279.235 427.571 279.03 427.499 278.837C427.428 278.645 427.319 278.468 427.18 278.317C427.04 278.167 426.872 278.045 426.685 277.959C426.499 277.874 426.297 277.825 426.092 277.817C426.069 277.817 426.046 277.816 426.023 277.816H352.211V277.816Z" fill="#E6E6E6"/>
<path d="M435.584 341.904H314.884C314.292 341.904 313.723 341.668 313.304 341.25C312.885 340.831 312.65 340.263 312.649 339.671V309.757C312.65 309.165 312.886 308.597 313.305 308.179C313.724 307.76 314.292 307.525 314.884 307.524H435.584C436.176 307.525 436.744 307.76 437.163 308.179C437.582 308.597 437.818 309.165 437.819 309.757V339.672C437.818 340.264 437.582 340.831 437.163 341.25C436.744 341.668 436.176 341.903 435.584 341.904V341.904ZM314.884 308.417C314.529 308.417 314.188 308.559 313.936 308.81C313.685 309.061 313.543 309.402 313.543 309.757V339.672C313.543 340.027 313.685 340.368 313.936 340.619C314.188 340.87 314.529 341.012 314.884 341.012H435.584C435.939 341.012 436.28 340.87 436.532 340.619C436.783 340.368 436.925 340.027 436.925 339.672V309.757C436.925 309.402 436.783 309.061 436.532 308.81C436.28 308.559 435.939 308.417 435.584 308.417H314.884Z" fill="#E6E6E6"/>
<path d="M352.211 318.459C351.796 318.459 351.398 318.624 351.105 318.917C350.812 319.21 350.647 319.608 350.647 320.022C350.647 320.437 350.812 320.835 351.105 321.128C351.398 321.421 351.796 321.586 352.211 321.586H425.972C426.381 321.583 426.773 321.421 427.063 321.134C427.354 320.846 427.521 320.456 427.528 320.048C427.534 319.639 427.38 319.244 427.099 318.947C426.818 318.65 426.432 318.475 426.023 318.46H352.211V318.459Z" fill="#E6E6E6"/>
<path d="M352.211 327.841C351.796 327.841 351.398 328.006 351.105 328.299C350.812 328.592 350.647 328.99 350.647 329.404C350.647 329.819 350.812 330.217 351.105 330.51C351.398 330.803 351.796 330.968 352.211 330.968H425.972C426.381 330.965 426.773 330.803 427.063 330.516C427.354 330.228 427.521 329.838 427.528 329.43C427.534 329.021 427.38 328.626 427.099 328.329C426.818 328.032 426.432 327.857 426.023 327.842H352.211V327.841Z" fill="#E6E6E6"/>
<path d="M435.584 391.928H314.884C314.292 391.928 313.723 391.692 313.304 391.273C312.885 390.855 312.65 390.287 312.649 389.695V359.781C312.65 359.189 312.886 358.621 313.305 358.203C313.724 357.784 314.292 357.549 314.884 357.548H435.584C436.176 357.549 436.744 357.784 437.163 358.203C437.582 358.621 437.818 359.189 437.819 359.781V389.696C437.818 390.288 437.582 390.855 437.163 391.274C436.744 391.693 436.176 391.928 435.584 391.929V391.928ZM314.884 358.441C314.529 358.441 314.188 358.582 313.936 358.834C313.685 359.085 313.543 359.426 313.543 359.781V389.696C313.543 390.051 313.685 390.392 313.936 390.643C314.188 390.894 314.529 391.035 314.884 391.036H435.584C435.939 391.035 436.28 390.894 436.532 390.643C436.783 390.392 436.925 390.051 436.925 389.696V359.781C436.925 359.426 436.783 359.085 436.532 358.834C436.28 358.582 435.939 358.441 435.584 358.441H314.884Z" fill="#E6E6E6"/>
<path d="M352.211 368.485C351.796 368.485 351.398 368.649 351.105 368.943C350.812 369.236 350.647 369.633 350.647 370.048C350.647 370.463 350.812 370.86 351.105 371.153C351.398 371.447 351.796 371.611 352.211 371.611H425.972C426.177 371.619 426.382 371.587 426.575 371.515C426.767 371.444 426.944 371.336 427.095 371.196C427.246 371.056 427.368 370.889 427.453 370.702C427.539 370.516 427.588 370.314 427.595 370.109C427.603 369.904 427.571 369.699 427.499 369.506C427.428 369.314 427.319 369.137 427.18 368.986C427.04 368.836 426.872 368.714 426.685 368.628C426.499 368.542 426.297 368.494 426.092 368.486C426.069 368.485 426.046 368.485 426.023 368.485H352.211V368.485Z" fill="#E6E6E6"/>
<path d="M352.211 377.865C351.796 377.865 351.398 378.029 351.105 378.323C350.812 378.616 350.647 379.013 350.647 379.428C350.647 379.843 350.812 380.24 351.105 380.534C351.398 380.827 351.796 380.991 352.211 380.991H425.972C426.177 380.999 426.382 380.967 426.575 380.895C426.767 380.824 426.944 380.716 427.095 380.576C427.246 380.437 427.368 380.269 427.453 380.082C427.539 379.896 427.588 379.694 427.595 379.489C427.603 379.284 427.571 379.079 427.499 378.886C427.428 378.694 427.319 378.517 427.18 378.366C427.04 378.216 426.872 378.094 426.685 378.008C426.499 377.922 426.297 377.874 426.092 377.866C426.069 377.866 426.046 377.865 426.023 377.865H352.211V377.865Z" fill="#E6E6E6"/>
<path d="M393.695 170.899H376.682V153.9H373.847V170.899H356.834V173.731H373.847V190.73H376.682V173.731H393.695V170.899Z" fill="#77B2D3"/>
<path d="M132.442 384.653C132.442 384.653 118.531 399.875 116.544 434.952C114.557 470.029 113.894 474 113.894 474H163.575L172.844 450.177L183.445 473.998H230.475C230.475 473.998 235.774 401.197 230.475 399.211C225.176 397.226 132.442 384.653 132.442 384.653Z" fill="#2F2E41"/>
<path d="M199.011 205.628C212.181 205.628 222.857 194.961 222.857 181.802C222.857 168.644 212.181 157.977 199.011 157.977C185.841 157.977 175.165 168.644 175.165 181.802C175.165 194.961 185.841 205.628 199.011 205.628Z" fill="#FFB8B8"/>
<path d="M302.015 385.318L265.583 319.134L244.384 284.719L269.557 273.467L283.467 300.602C283.467 300.602 302.015 327.737 306.651 350.24C311.287 372.743 315.925 383.332 315.925 383.332L302.015 385.318Z" fill="#FFB8B8"/>
<path d="M101.304 366.122L155.621 318.47L152.974 280.084H137.739L133.1 299.939L89.3816 357.518L101.304 366.122Z" fill="#FFB8B8"/>
<path d="M171.521 217.211C171.521 217.211 191.194 225.452 205.865 215.375C205.865 215.375 241.735 221.184 243.722 223.168C245.71 225.152 241.735 284.716 241.735 284.716L233.787 318.471C233.787 318.471 245.048 370.094 228.488 383.331L231.8 401.2C231.8 401.2 158.274 406.495 129.128 388.625L134.426 370.755L148.337 314.499L139.726 236.405C139.726 236.405 146.347 218.535 171.521 217.211Z" fill="#E4E4E4"/>
<path d="M226.832 226.145L244.054 223.5C244.054 223.5 252.666 224.824 260.614 241.37C268.563 257.916 277.175 279.756 277.175 279.756L247.367 292.992L222.858 254.606L226.832 226.145Z" fill="#E4E4E4"/>
<path d="M143.701 233.095L139.727 236.404C139.727 236.404 134.428 255.597 134.428 268.834V286.703L158.274 289.35L143.701 233.095Z" fill="#E4E4E4"/>
<path d="M175.171 188.268C175.171 188.268 171.93 184.771 172.258 180.393C172.474 177.902 172.315 175.393 171.785 172.95C171.785 172.95 172.8 165.784 174.298 161.63C175.796 157.476 174.533 156.031 180.973 153.763C187.412 151.495 183.313 143.295 202.298 149.832C203.02 150.561 203.942 151.059 204.947 151.265C205.952 151.47 206.996 151.373 207.946 150.987C211.452 149.704 213.564 154.515 213.564 154.515C213.564 154.515 215.75 152.723 216.977 154.586C218.204 156.45 224.137 152.203 226.314 165.758C228.491 179.314 221.021 191.402 221.021 191.402C221.021 191.402 219.973 169.711 207.643 169.317C195.313 168.923 181.37 164.258 179.64 173.392C177.911 182.526 175.171 188.268 175.171 188.268Z" fill="#2F2E41"/>
<path d="M92.6156 376.259C98.2912 376.259 102.892 371.662 102.892 365.991C102.892 360.32 98.2912 355.723 92.6156 355.723C86.9399 355.723 82.3389 360.32 82.3389 365.991C82.3389 371.662 86.9399 376.259 92.6156 376.259Z" fill="#FFB8B8"/>
<path d="M18.5295 435.341L187.781 401.585L173.637 330.789L4.38525 364.543L18.5295 435.341Z" fill="white"/>
<path d="M189.167 402.509L17.6058 436.728L3 363.621L174.561 329.404L189.167 402.509ZM19.4544 433.958L186.397 400.663L172.713 332.172L5.7706 365.468L19.4544 433.958Z" fill="#E4E4E4"/>
<path d="M73.7145 412.838L73.6451 412.867C73.0931 413.094 72.5338 413.309 71.9591 413.497C71.766 413.563 71.5657 413.624 71.3717 413.682C71.1777 413.741 70.9771 413.803 70.7762 413.857C70.4493 413.951 70.1146 414.034 69.7781 414.112C69.6341 414.149 69.4824 414.181 69.3371 414.212L69.2498 414.23C69.0695 414.269 68.8892 414.307 68.7076 414.339L68.2382 414.421C68.1509 414.44 68.0646 414.452 67.9796 414.464C64.2471 415.049 60.4304 414.781 56.8165 413.68C53.2026 412.579 49.8856 410.674 47.115 408.108C44.3443 405.541 42.192 402.381 40.82 398.863C39.4481 395.346 38.8921 391.564 39.1939 387.801C39.4957 384.038 40.6475 380.393 42.5626 377.139C44.4777 373.885 47.1063 371.107 50.2507 369.014C53.3951 366.922 56.9735 365.568 60.7167 365.056C64.4599 364.545 68.2706 364.887 71.8622 366.059C68.6117 368.993 66.1901 372.729 64.8401 376.892C63.4901 381.056 63.2591 385.501 64.1703 389.782C65.0816 394.062 67.103 398.029 70.032 401.283C72.9609 404.537 76.6946 406.965 80.8587 408.324C78.7531 410.225 76.3374 411.753 73.7161 412.84L73.7145 412.838Z" fill="#77B2D3"/>
<path d="M109.444 400.139C110.536 400.686 111.668 401.15 112.83 401.528C109.577 404.473 105.602 406.505 101.308 407.417L100.994 407.484C97.2457 408.235 93.3748 408.118 89.679 407.14C85.9833 406.163 82.5613 404.351 79.6763 401.844C76.7914 399.338 74.5204 396.204 73.0382 392.683C71.5559 389.162 70.9019 385.348 71.1264 381.535C71.3509 377.722 72.448 374.011 74.3333 370.688C76.2185 367.365 78.8417 364.518 82.0008 362.367C85.16 360.216 88.771 358.817 92.556 358.279C96.341 357.742 100.199 358.078 103.833 359.264C100.803 361.985 98.4863 365.405 97.0848 369.227C95.6833 373.049 95.2399 377.155 95.7933 381.188C96.3468 385.22 97.8803 389.056 100.26 392.359C102.639 395.663 105.792 398.334 109.444 400.139L109.444 400.139Z" fill="#77B2D3"/>
<path d="M152.518 371.009C153.547 375.839 153.118 380.866 151.287 385.453C149.456 390.04 146.305 393.982 142.231 396.78C138.158 399.578 133.346 401.106 128.404 401.171C123.461 401.236 118.61 399.836 114.465 397.146C110.319 394.457 107.064 390.6 105.113 386.063C103.161 381.525 102.6 376.512 103.5 371.656C104.4 366.8 106.721 362.319 110.17 358.781C113.619 355.243 118.04 352.807 122.875 351.779C126.085 351.097 129.398 351.053 132.625 351.651C135.852 352.248 138.93 353.474 141.683 355.26C144.435 357.045 146.809 359.355 148.668 362.057C150.527 364.76 151.836 367.801 152.518 371.009Z" fill="#77B2D3"/>
<path d="M142.053 393.291C142.289 394.396 142.413 395.522 142.422 396.653C139.67 398.577 136.558 399.929 133.273 400.627C129.987 401.325 126.594 401.355 123.297 400.717C122.844 399.68 122.499 398.601 122.264 397.496C121.041 391.75 122.937 386.272 126.623 383.794C124.869 383.459 123.284 382.529 122.139 381.16C120.993 379.791 120.357 378.068 120.338 376.283C120.32 374.499 120.919 372.763 122.036 371.37C123.153 369.978 124.717 369.014 126.464 368.643C128.211 368.271 130.033 368.516 131.62 369.334C133.207 370.152 134.462 371.494 135.172 373.131C135.881 374.769 136.002 376.601 135.513 378.318C135.024 380.034 133.956 381.528 132.49 382.547C136.868 383.312 140.83 387.545 142.053 393.291Z" fill="white"/>
<path d="M109.444 400.141L109.46 400.216C109.67 401.604 109.765 403.007 109.745 404.411C107.156 406.225 104.262 406.749 100.995 407.486L100.68 407.553C97.3952 408.255 94.0017 408.285 90.7044 407.642C90.6597 407.547 90.6207 407.45 90.5878 407.351C90.1894 406.406 89.8829 405.425 89.6724 404.421C88.4495 398.676 90.3449 393.198 94.0315 390.719C92.277 390.385 90.6924 389.455 89.5466 388.086C88.4008 386.717 87.7645 384.994 87.7458 383.21C87.7271 381.425 88.327 379.689 89.4438 378.297C90.5606 376.904 92.1254 375.941 93.8724 375.57C94.4644 375.442 95.0697 375.387 95.675 375.406C95.1913 380.437 96.2491 385.497 98.7081 389.914C101.167 394.332 104.911 397.898 109.445 400.142L109.444 400.141Z" fill="white"/>
<path d="M78.0911 407.234C78.2896 408.229 78.393 409.241 78.4 410.256C76.422 411.643 74.2526 412.734 71.96 413.497C71.7667 413.562 71.5666 413.623 71.3726 413.681C71.1786 413.74 70.978 413.802 70.7772 413.856C70.4502 413.951 70.1155 414.034 69.7791 414.111C69.7102 414.132 69.635 414.148 69.5649 414.163L69.2508 414.229C69.0704 414.268 68.8901 414.306 68.7085 414.339L68.2391 414.42C68.1518 414.439 68.0656 414.451 67.9805 414.463C65.0929 414.929 62.1456 414.881 59.275 414.32C59.2674 414.308 59.2625 414.294 59.2606 414.28C59.2206 414.199 59.1865 414.114 59.1583 414.028C58.76 413.083 58.4534 412.102 58.243 411.098C57.02 405.353 58.9155 399.875 62.6021 397.397C60.8476 397.063 59.2629 396.132 58.1171 394.763C56.9714 393.394 56.3351 391.671 56.3163 389.887C56.2976 388.103 56.8976 386.367 58.0144 384.974C59.1311 383.582 60.6959 382.618 62.443 382.247C62.8622 382.157 63.2883 382.103 63.7166 382.086C63.1957 387.251 64.3006 392.45 66.8773 396.957C69.4541 401.465 73.3743 405.057 78.0915 407.233L78.0911 407.234Z" fill="white"/>
<path d="M335.588 279.176C335.589 279.742 335.532 280.305 335.419 280.859C333.872 281.515 332.21 281.852 330.53 281.852C328.85 281.852 327.188 281.515 325.641 280.859C325.528 280.305 325.471 279.742 325.471 279.176C325.471 276.239 326.968 273.757 329.03 272.927C328.207 272.581 327.529 271.961 327.111 271.173C326.693 270.384 326.561 269.475 326.738 268.6C326.914 267.726 327.389 266.939 328.08 266.374C328.771 265.809 329.636 265.5 330.53 265.5C331.423 265.5 332.288 265.809 332.98 266.374C333.671 266.939 334.145 267.726 334.321 268.6C334.498 269.475 334.366 270.384 333.948 271.173C333.531 271.961 332.852 272.581 332.029 272.927C334.092 273.757 335.588 276.239 335.588 279.176Z" fill="#77B2D3"/>
<path d="M335.588 330.215C335.589 330.78 335.532 331.344 335.419 331.898C333.872 332.553 332.21 332.891 330.53 332.891C328.85 332.891 327.188 332.553 325.641 331.898C325.528 331.344 325.471 330.78 325.471 330.215C325.471 327.278 326.968 324.795 329.03 323.966C328.207 323.62 327.529 323 327.111 322.211C326.693 321.422 326.561 320.513 326.738 319.639C326.914 318.764 327.389 317.977 328.08 317.412C328.771 316.847 329.636 316.538 330.53 316.538C331.423 316.538 332.288 316.847 332.98 317.412C333.671 317.977 334.145 318.764 334.321 319.639C334.498 320.513 334.366 321.422 333.948 322.211C333.531 323 332.852 323.62 332.029 323.966C334.092 324.795 335.588 327.278 335.588 330.215Z" fill="#77B2D3"/>
<path d="M335.588 380.238C335.589 380.803 335.532 381.367 335.419 381.921C333.872 382.576 332.21 382.914 330.53 382.914C328.85 382.914 327.188 382.576 325.641 381.921C325.528 381.367 325.471 380.803 325.471 380.238C325.471 377.301 326.968 374.818 329.03 373.989C328.207 373.643 327.529 373.023 327.111 372.234C326.693 371.446 326.561 370.537 326.738 369.662C326.914 368.787 327.389 368 328.08 367.435C328.771 366.87 329.636 366.561 330.53 366.561C331.423 366.561 332.288 366.87 332.98 367.435C333.671 368 334.145 368.787 334.321 369.662C334.498 370.537 334.366 371.446 333.948 372.234C333.531 373.023 332.852 373.643 332.029 373.989C334.092 374.818 335.588 377.301 335.588 380.238Z" fill="#77B2D3"/>
<path d="M309.601 397.381C314.79 397.381 318.997 393.178 318.997 387.993C318.997 382.809 314.79 378.606 309.601 378.606C304.412 378.606 300.205 382.809 300.205 387.993C300.205 393.178 304.412 397.381 309.601 397.381Z" fill="#FFB8B8"/>
</g>
<path d="M108.182 103.65C126.359 103.65 141.095 88.914 141.095 70.7368C141.095 52.5595 126.359 37.824 108.182 37.824C90.0048 37.824 75.2693 52.5595 75.2693 70.7368C75.2693 88.914 90.0048 103.65 108.182 103.65Z" fill="#F0F0F0"/>
<path d="M16.5 147C25.6127 147 33 139.613 33 130.5C33 121.387 25.6127 114 16.5 114C7.3873 114 0 121.387 0 130.5C0 139.613 7.3873 147 16.5 147Z" fill="#F0F0F0"/>
<path d="M94.0682 64.3608L79.3737 49.8533C78.6584 49.1415 77.8096 48.5779 76.876 48.1947C75.9425 47.8115 74.9425 47.6164 73.9334 47.6204H73.8817C72.865 47.6234 71.8589 47.8279 70.9218 48.2223C69.9846 48.6166 69.135 49.193 68.4221 49.9179C65.1364 53.243 63.2677 57.7125 63.2087 62.3868C63.1497 67.061 64.9051 71.5762 68.1059 74.9832C68.2607 75.151 68.4221 75.3123 68.5834 75.4737C69.4771 76.362 70.4637 77.1517 71.5262 77.8292C74.4312 79.7062 77.8188 80.6993 81.2775 80.6881H81.3872C83.7611 80.68 86.1098 80.2013 88.2976 79.2797C90.4853 78.3581 92.4687 77.0118 94.1328 75.3188C95.5748 73.8558 96.3778 71.8806 96.3657 69.8264C96.3536 67.7723 95.5274 65.8067 94.0682 64.3608V64.3608ZM93.2164 74.4088C90.4881 77.1573 86.8958 78.8813 83.0448 79.2904C79.1939 79.6995 75.3196 78.7686 72.0748 76.6546C71.1467 76.0404 70.28 75.3381 69.4869 74.5573C66.3206 71.4301 64.5262 67.1734 64.4984 62.7233C64.4706 58.2732 66.2116 53.9943 69.3385 50.8278C69.9329 50.2221 70.6418 49.7407 71.424 49.4117C72.2062 49.0826 73.0461 48.9124 73.8947 48.9111H73.9334C74.7736 48.9082 75.6061 49.0708 76.3835 49.3897C77.1608 49.7086 77.8677 50.1776 78.4637 50.7697L93.1583 65.2836C94.3748 66.4867 95.0641 68.1233 95.075 69.8342C95.0859 71.5451 94.4175 73.1904 93.2164 74.4088V74.4088Z" fill="#3F3D56"/>
<path d="M45.8544 16.7468L31.1598 2.23293C29.7134 0.797871 27.757 -0.00510636 25.7195 2.44377e-05H25.6744C24.6563 0.00411978 23.649 0.209812 22.7109 0.605236C21.7727 1.00066 20.9221 1.57799 20.2082 2.30388C17.492 5.06254 15.7307 8.61868 15.1826 12.4512C14.6344 16.2836 15.3282 20.1909 17.1622 23.6004L17.1687 23.6068C17.9253 25.0014 18.865 26.2885 19.963 27.4338C20.0856 27.5757 20.2276 27.7177 20.3696 27.8597C23.7441 31.2093 28.3089 33.0844 33.0636 33.0741H33.1798C35.554 33.0642 37.9028 32.584 40.0904 31.6613C42.2781 30.7387 44.2612 29.3918 45.9254 27.6984C46.6399 26.9747 47.2049 26.1173 47.588 25.1752C47.9711 24.2331 48.1649 23.2248 48.1583 22.2079C48.1517 21.1909 47.9448 20.1852 47.5495 19.2482C47.1542 18.3112 46.5782 17.4612 45.8544 16.7468V16.7468ZM45.0026 26.7949C43.4579 28.3663 41.6172 29.6162 39.5869 30.4724C37.5566 31.3286 35.3768 31.7742 33.1733 31.7835H33.0636C29.7545 31.7822 26.5196 30.8025 23.7658 28.9675C21.012 27.1326 18.8623 24.5243 17.5869 21.4708C16.3116 18.4173 15.9676 15.0549 16.5982 11.8064C17.2288 8.5579 18.8059 5.56841 21.1311 3.21387C22.3342 1.99749 23.9708 1.30819 25.6817 1.2973C27.3925 1.28641 29.0378 1.9548 30.2563 3.15577L44.9509 17.6632C46.1666 18.8684 46.8547 20.5066 46.8644 22.2184C46.8741 23.9302 46.2045 25.576 45.0025 26.7949L45.0026 26.7949Z" fill="#3F3D56"/>
<path d="M95.0076 68.9217L78.8073 52.9212C77.745 51.8744 76.3107 51.2916 74.8193 51.3009C73.3279 51.3101 71.901 51.9106 70.8518 52.9706C69.5392 54.2966 68.5009 55.8683 67.7961 57.5959C67.0914 59.3235 66.7341 61.1731 66.7446 63.0388C66.7552 64.9046 67.1333 66.75 67.8575 68.4695C68.5818 70.189 69.6378 71.7489 70.9653 73.06C72.2928 74.3711 73.8656 75.4077 75.594 76.1105C77.3224 76.8133 79.1723 77.1686 81.0381 77.156C82.9038 77.1433 84.7488 76.7631 86.4675 76.037C88.1862 75.3108 89.7449 74.2531 91.0545 72.9241L95.0076 68.9217Z" fill="#77B2D3"/>
<path d="M46.7967 21.3053L30.5963 5.30478C29.534 4.25791 28.0998 3.67518 26.6084 3.68443C25.1169 3.69369 23.6901 4.29418 22.6408 5.35415C21.3283 6.68017 20.2899 8.2519 19.5852 9.97948C18.8805 11.7071 18.5231 13.5566 18.5337 15.4224C18.5442 17.2881 18.9224 19.1335 19.6466 20.853C20.3708 22.5725 21.4269 24.1324 22.7544 25.4435C24.0818 26.7546 25.6547 27.7912 27.3831 28.494C29.1114 29.1969 30.9614 29.5521 32.8271 29.5395C34.6929 29.5269 36.5379 29.1467 38.2566 28.4205C39.9753 27.6944 41.534 26.6366 42.8436 25.3077L46.7967 21.3053Z" fill="#77B2D3"/>
<path d="M77.2055 78.8876L76.8183 79.9072C74.9985 79.2167 73.2345 78.524 71.5265 77.8292C41.2725 65.4836 26.8296 51.0343 17.1688 23.6069L17.1623 23.6005C16.7041 22.3098 16.2588 20.989 15.8264 19.6381L16.8461 19.309C17.187 20.6082 17.6855 21.8608 18.3304 23.0391C18.8596 24.5427 19.4038 26.0077 19.9631 27.4339C29.0432 50.5826 42.4342 63.8122 68.1061 74.9832C69.3968 75.5447 70.7198 76.1019 72.075 76.6547C73.6487 77.68 75.3828 78.4347 77.2055 78.8876V78.8876Z" fill="#3F3D56"/>
<path d="M30.8904 31.8994L29.9832 32.818L63.5013 65.923L64.4085 65.0045L30.8904 31.8994Z" fill="#3F3D56"/>
<defs>
<clipPath id="clip0_16_805">
<rect width="476" height="417" fill="white" transform="translate(3 57)"/>
</clipPath>
</defs>
</svg>
